Coordinates
version=1
nRows=16
nColumns=36
inDegrees=yes

Units are S.I. units (second, meters, Newtons, ...)
If the header above contains a line with 'inDegrees', this indicates whether rotational values are in degrees (yes) or radians (no).

endheader
time	pelvis_tilt	pelvis_list	pelvis_rotation	pelvis_tx	pelvis_ty	pelvis_tz	hip_flexion_r	hip_adduction_r	hip_rotation_r	knee_angle_r	knee_angle_r_beta	ankle_angle_r	subtalar_angle_r	mtp_angle_r	hip_flexion_l	hip_adduction_l	hip_rotation_l	knee_angle_l	knee_angle_l_beta	ankle_angle_l	subtalar_angle_l	mtp_angle_l	lumbar_extension	lumbar_bending	lumbar_rotation	arm_flex_r	arm_add_r	arm_rot_r	elbow_flex_r	pro_sup_r	arm_flex_l	arm_add_l	arm_rot_l	elbow_flex_l	pro_sup_l
      0.68000000	      1.62672354	      2.40236070	     -0.43251489	      0.71702269	      0.92975600	     -0.24458911	    -16.72685468	     -0.35372481	      8.07368460	     24.98739672	      0.43611234	      8.90494588	      4.43404077	     -6.76633429	     23.11699213	      4.65040967	      8.65937342	     20.45392635	      0.35698836	     -0.95382835	     -1.73298507	     -6.76633429	     -6.59737160	     -4.20309503	      3.57328571	    -12.68937423	     -4.76539518	    -14.71359545	     38.85846121	    111.94423319	    -10.14949452	     -6.10443702	    -22.82590021	     27.05376177	    108.33313549
      0.69000000	      1.81840818	      2.75846434	     -0.27765502	      0.73095042	      0.93181231	     -0.24610286	    -15.23666174	     -0.89828392	      7.21152285	     28.90595051	      0.50450401	      5.99082237	      4.90408005	     -6.77452336	     22.30200533	      5.29828679	      9.02644529	     21.24604225	      0.37081339	      0.03496487	     -2.26777196	     -6.77452336	     -6.73163226	     -4.70819418	      3.29448894	    -12.86827700	     -4.51276161	    -14.41632110	     38.52509692	    111.97183269	     -9.80359008	     -6.21687568	    -22.60725402	     27.00827834	    108.35660412
      0.70000000	      1.85173075	      3.10473789	     -0.11957935	      0.74460926	      0.93361473	     -0.24771811	    -13.29937017	     -1.48069347	      6.42806647	     33.10742625	      0.57783359	      2.75465851	      5.38696782	     -6.78302855	     21.55642794	      5.90643164	      9.33972773	     21.80031389	      0.38048726	      0.96543288	     -2.57479108	     -6.78302855	     -6.65781978	     -5.15815981	      2.95858860	    -13.04301913	     -4.35189819	    -14.03329934	     38.16751619	    112.01248236	     -9.46412359	     -6.32204076	    -22.27056975	     26.92476837	    108.39744661
      0.71000000	      1.83245196	      3.42409484	     -0.00804338	      0.75793001	      0.93530331	     -0.24910164	    -11.11896011	     -2.02606516	      5.89154639	     37.38101161	      0.65242173	     -0.67084914	      5.79328100	     -6.79227555	     20.76401437	      6.39810556	      9.48437396	     22.09232238	      0.38558376	      1.82634743	     -2.60250539	     -6.79227555	     -6.53746009	     -5.58322293	      2.61050836	    -13.18352183	     -4.20408306	    -13.53508949	     37.79738783	    112.06863518	     -9.11164250	     -6.46539784	    -21.79375689	     26.82283890	    108.45940197
      0.72000000	      1.72292311	      3.58793257	      0.04701343	      0.77090160	      0.93683355	     -0.25018302	     -8.69762365	     -2.34659450	      5.63494534	     41.60768328	      0.72619107	     -4.31795308	      5.54128038	     -6.83396218	     20.03480406	      6.59863123	      9.27196958	     22.25605420	      0.38844142	      2.90928610	     -1.94964120	     -6.83396218	     -6.29435671	     -5.82498732	      2.25880439	    -13.18069624	     -4.27545100	    -12.23946442	     37.14304353	    112.17827426	     -8.72713451	     -6.80862477	    -20.16172482	     26.33092733	    108.58242098
      0.73000000	      1.76907215	      3.94036983	      0.00415776	      0.78368063	      0.93854051	     -0.25118494	     -6.40361577	     -2.95981986	      5.39714374	     45.62450618	      0.79629785	     -7.28710394	      6.08694969	     -6.84111300	     18.89979778	      6.98081466	      9.06937885	     21.93731711	      0.38287841	      3.73184236	     -1.74764964	     -6.84111300	     -6.28159709	     -6.27198590	      1.92305268	    -13.24307870	     -4.07576798	    -12.01534243	     37.01533092	    112.19875770	     -8.35287882	     -6.92889126	    -19.84223788	     26.38213444	    108.61668462
      0.74000000	      1.60768660	      4.19665403	     -0.07857692	      0.79606514	      0.93990078	     -0.25204214	     -3.80384567	     -3.44185368	      5.28747443	     49.46661695	      0.86335534	     -9.62712630	      6.15508546	     -6.84976897	     18.02227909	      7.21136015	      8.70131156	     21.60348873	      0.37705201	      4.52791117	     -1.26596118	     -6.84976897	     -6.02418993	     -6.59443666	      1.62940978	    -13.27551456	     -3.96596068	    -11.62266880	     36.74946532	    112.24452685	     -7.96556224	     -7.06100507	    -19.24774235	     26.41548277	    108.69854001
      0.75000000	      1.31632495	      4.27909361	     -0.24969128	      0.80803562	      0.94106686	     -0.25252306	     -1.05597051	     -3.61721989	      5.45183608	     52.97951467	      0.92466697	    -11.00180674	      5.63466353	     -6.87298839	     17.39136580	      7.15608566	      7.98618316	     21.41931500	      0.37383757	      5.61130766	     -0.12079733	     -6.87298839	     -5.62560139	     -6.72996924	      1.33053421	    -13.15261003	     -3.98942126	    -10.76678110	     36.26467206	    112.33684952	     -7.57470457	     -7.35345191	    -17.68718079	     26.16098852	    108.86217432
      0.76000000	      1.32080454	      4.51042486	     -0.55125788	      0.81995188	      0.94278575	     -0.25300166	      1.30566493	     -4.01935028	      5.65122593	     56.04928371	      0.97824454	    -11.35458941	      5.33409257	     -6.87903611	     16.15900898	      7.32388610	      7.64419495	     20.73039884	      0.36181371	      6.33200767	      0.24604652	     -6.87903611	     -5.58827947	     -7.00703818	      1.02858287	    -13.04586590	     -3.87255473	    -10.58966215	     36.16002591	    112.35386362	     -7.17001790	     -7.44402696	    -17.23957865	     26.19967560	    108.90967948
      0.77000000	      1.03947423	      4.66302599	     -0.86788909	      0.83158315	      0.94410009	     -0.25339038	      4.00086929	     -4.31000915	      5.82445432	     58.81314218	      1.02648297	    -10.60513558	      4.54957208	     -6.88685450	     15.31698822	      7.37474232	      7.05861600	     20.10405367	      0.35088193	      6.99816768	      0.80948683	     -6.88685450	     -5.20968045	     -7.19106199	      0.84615973	    -12.97142128	     -3.79057914	    -10.34297178	     35.88086170	    112.37758279	     -6.73841660	     -7.56027308	    -16.48825236	     26.29051522	    109.00177389
      0.78000000	      0.86772242	      4.67756926	     -1.27206107	      0.84301650	      0.94571857	     -0.25356870	      6.48366348	     -4.34197928	      6.21004058	     61.02150572	      1.06502619	     -9.36338026	      3.61585187	     -6.89291188	     14.32384826	      7.28495322	      6.62108620	     19.42563943	      0.33904137	      7.59931362	      1.28973144	     -6.89291188	     -4.99111785	     -7.20763683	      0.58039833	    -12.79188428	     -3.72702208	    -10.19198770	     35.67739952	    112.39152476	     -6.32984124	     -7.64845154	    -15.80014021	     26.34359691	    109.08423599
      0.79000000	      0.50311406	      4.57433702	     -1.61772980	      0.85432372	      0.94708103	     -0.25376466	      9.13139169	     -4.24882687	      6.44530068	     62.80811289	      1.09620837	     -7.60927469	      2.79104640	     -6.92290783	     13.69288413	      7.00866358	      5.74183982	     19.00399267	      0.33168224	      8.55815943	      2.67080058	     -6.92290783	     -4.52769345	     -7.04948311	      0.53820011	    -12.72520845	     -3.76615726	     -9.89695553	     35.20737494	    112.41107628	     -5.71418367	     -8.03603373	    -13.11406827	     25.91046998	    109.22631163
      0.80000000	      0.45638408	      4.42983131	     -1.97995530	      0.86567366	      0.94910884	     -0.25390460	     11.24164524	     -4.05965172	      6.72122073	     63.91913492	      1.11559936	     -6.10694251	      1.56371449	     -6.92796709	     12.45415911	      6.81438955	      5.58882771	     18.11322786	      0.31613546	      8.90768497	      2.85420475	     -6.92796709	     -4.49406777	     -6.86822811	      0.25085855	    -12.59991554	     -3.67588130	     -9.97347841	     35.15538921	    112.39415712	     -5.20500072	     -8.02144180	    -12.75482536	     26.03879413	    109.23223438
      0.81000000	      0.35879244	      4.21221160	     -2.27826594	      0.87699459	      0.95109110	     -0.25409008	     13.28832607	     -3.77907726	      6.93560279	     64.54208715	      1.12647193	     -4.62840877	      0.36840129	     -6.93253724	     11.30884152	      6.55221501	      5.44196364	     17.27570929	      0.30151801	      9.19281523	      3.10431451	     -6.93253724	     -4.39894649	     -6.59275524	     -0.06086896	    -12.48874705	     -3.63503052	    -10.09538022	     35.03819139	    112.36781285	     -4.71243411	     -8.00777276	    -12.29236537	     26.25245659	    109.26977178
      0.82000000	      0.33874528	      3.91989791	     -2.47198660	      0.88836070	      0.95321855	     -0.25427460	     15.08214516	     -3.41695604	      7.01713637	     64.65036335	      1.12836170	     -3.40361927	     -1.14856992	     -6.98988877	     10.13497344	      6.19596456	      5.16869825	     16.55106487	      0.28887058	      9.66527790	      3.91232279	     -6.98988877	     -4.37326294	     -6.18312858	      0.02253089	    -12.70008978	     -3.43410230	    -11.00950980	     35.14722651	    112.27474200	     -3.71728725	     -8.38352544	     -9.21045749	     25.65045027	    108.98089712
      0.83000000	      0.28145310	      3.54103831	     -2.60030141	      0.89970508	      0.95531149	     -0.25458545	     16.77121466	     -2.96702436	      7.11939808	     64.27742747	      1.12185274	     -2.35675502	     -1.93009075	     -6.99302877	      8.95080159	      5.79917974	      5.18987652	     15.71873249	      0.27434364	      9.81912286	      4.05239166	     -6.99302877	     -4.33239482	     -5.69104786	     -0.44548166	    -12.63517697	     -3.45726696	    -11.11437519	     35.10580773	    112.25778050	     -3.25766680	     -8.30474681	     -9.03025814	     25.96505300	    108.99691109
